<?xml version="1.0" encoding="UTF-8"?>
<svg id="Capa_2" data-name="Capa 2" xmlns="http://www.w3.org/2000/svg" viewBox="0 0 974.24 251.22">
  <defs>
    <style>
      .cls-1 {
        fill: #fff;
      }

      .cls-2 {
        fill: aqua;
        stroke: #121212;
        stroke-miterlimit: 10;
        stroke-width: 2px;
      }

      .cls-3 {
        fill: #22ffe5;
      }
    </style>
  </defs>
  <g id="Capa_1-2" data-name="Capa 1">
    <g>
      <g>
        <path class="cls-3" d="M213.65,14.31h64.01c5.52,0,10,4.48,10,10V61.55c0,5.52-4.48,10-10,10h-54.01c-5.52,0-10-4.48-10-10V14.31h0Z"/>
        <path class="cls-3" d="M138.34,125.61c-2.6,93.81,77.9,92.22,77.9,92.22v19.08s-93.48-1.61-93.48-111.3S216.24,14.31,216.24,14.31v19.08s-75.37,.6-77.9,92.22Z"/>
        <path class="cls-3" d="M223.65,179.67h64.01v47.24c0,5.52-4.48,10-10,10h-54.01c-5.52,0-10-4.48-10-10v-37.24c0-5.52,4.48-10,10-10Z" transform="translate(501.3 416.59) rotate(180)"/>
        <polygon class="cls-3" points="266.88 11.13 233.12 11.13 238.31 0 261.69 0 266.88 11.13"/>
        <polygon class="cls-3" points="233.68 240.09 267.44 240.09 262.25 251.22 238.88 251.22 233.68 240.09"/>
      </g>
      <path class="cls-3" d="M0,194.07H41.58c6.27,0,11.48-2.19,15.63-6.58,4.14-4.39,6.22-9.71,6.22-15.98V14.84h44.01V171.51c0,22.77-5.42,39.69-16.24,50.76-10.83,11.07-26.96,16.61-48.41,16.61H0v-44.81Z"/>
      <g>
        <g>
          <path class="cls-1" d="M224.63,166.32V90.32h28.43c4.45,0,8.28,1.1,11.48,3.3,3.2,2.2,5.6,5.09,7.18,8.68,1.58,3.58,2.38,7.4,2.38,11.44s-.79,7.97-2.38,11.55c-1.59,3.58-3.98,6.48-7.18,8.68-3.2,2.2-7.03,3.3-11.48,3.3h-13.96v29.06h-14.47Zm27.21-43.86c2.29,0,4.08-.85,5.36-2.55,1.28-1.7,1.92-3.69,1.92-5.96s-.64-4.35-1.92-6.01c-1.28-1.67-3.07-2.5-5.36-2.5h-12.75v17.03h12.75Z"/>
          <path class="cls-1" d="M307.08,137.26h-6.98v29.06h-14.47V90.21h28.53c4.52,0,8.4,1.1,11.63,3.3,3.24,2.2,5.67,5.06,7.28,8.57,1.62,3.51,2.43,7.26,2.43,11.23,0,4.97-1.25,9.47-3.74,13.52-2.5,4.04-6,6.74-10.52,8.09l16.79,31.4h-16.39l-14.57-29.06Zm5.77-14.8c2.36,0,4.18-.83,5.46-2.5,1.28-1.67,1.92-3.67,1.92-6.01s-.64-4.35-1.92-6.01c-1.28-1.67-3.1-2.5-5.46-2.5h-12.75v17.03h12.75Z"/>
          <path class="cls-1" d="M362.06,161.85c-5.63-3.69-9.86-8.53-12.7-14.53-2.83-6-4.25-12.4-4.25-19.21s1.42-13.11,4.25-19.11c2.83-6,7.06-10.84,12.7-14.53,5.63-3.69,12.43-5.54,20.38-5.54s14.75,1.85,20.38,5.54c5.63,3.69,9.86,8.53,12.7,14.53,2.83,6,4.25,12.37,4.25,19.11s-1.42,13.22-4.25,19.21c-2.83,6-7.07,10.84-12.7,14.53-5.63,3.69-12.43,5.54-20.38,5.54s-14.75-1.84-20.38-5.54Zm32.22-13.57c3.3-2.24,5.78-5.15,7.44-8.73,1.65-3.58,2.48-7.4,2.48-11.44s-.83-7.88-2.48-11.5c-1.65-3.62-4.13-6.53-7.44-8.73-3.31-2.2-7.25-3.3-11.84-3.3s-8.52,1.1-11.79,3.3c-3.27,2.2-5.73,5.09-7.39,8.68-1.65,3.58-2.48,7.43-2.48,11.55s.83,7.86,2.48,11.44c1.65,3.58,4.11,6.49,7.39,8.73,3.27,2.24,7.2,3.35,11.79,3.35s8.53-1.12,11.84-3.35Z"/>
          <path class="cls-1" d="M474.55,95.58c5.43,3.58,9.52,8.29,12.29,14.1,2.76,5.82,4.15,11.99,4.15,18.52s-1.38,12.81-4.15,18.63c-2.77,5.82-6.86,10.52-12.29,14.1-5.43,3.58-11.99,5.38-19.68,5.38h-21.55V90.21h21.55c7.69,0,14.25,1.79,19.68,5.38Zm-26.76,9.85v45.67h7.08c4.45,0,8.28-1.08,11.48-3.25,3.2-2.16,5.61-4.98,7.23-8.46,1.62-3.48,2.43-7.2,2.43-11.18s-.81-7.59-2.43-11.07c-1.62-3.48-4.03-6.3-7.23-8.46-3.2-2.16-7.03-3.25-11.48-3.25h-7.08Z"/>
          <path class="cls-1" d="M552.75,154.61c-2.46,4.12-5.68,7.2-9.66,9.26-3.98,2.06-8.23,3.09-12.75,3.09s-8.79-1.03-12.8-3.09c-4.01-2.06-7.25-5.14-9.71-9.26-2.46-4.11-3.69-9.05-3.69-14.8v-49.61h14.47v49.5c0,3.76,1.16,6.69,3.49,8.78,2.33,2.09,5.07,3.14,8.25,3.14s5.92-1.05,8.25-3.14c2.33-2.09,3.49-5.02,3.49-8.78v-49.5h14.37v49.61c0,5.75-1.23,10.68-3.69,14.8Z"/>
          <path class="cls-1" d="M612.84,105.48c-1.86-.6-4.17-.9-6.93-.9-4.52,0-8.4,1.1-11.63,3.3-3.24,2.2-5.68,5.07-7.33,8.62-1.65,3.55-2.48,7.31-2.48,11.28s.83,7.74,2.48,11.28c1.65,3.55,4.1,6.42,7.33,8.62,3.24,2.2,7.11,3.3,11.63,3.3,2.83,0,5.45-.34,7.84-1.01,2.39-.67,4.43-1.47,6.12-2.4l1.92,15.75c-2.23,.92-4.79,1.69-7.69,2.29-2.9,.6-5.63,.91-8.19,.91-7.82,0-14.5-1.81-20.03-5.43-5.53-3.62-9.7-8.39-12.49-14.32-2.8-5.92-4.2-12.22-4.2-18.89s1.4-12.95,4.2-18.84c2.8-5.89,6.96-10.66,12.49-14.32,5.53-3.65,12.21-5.48,20.03-5.48,5.26,0,10.02,.99,14.26,2.98l-1.72,15.65c-1.89-.99-3.76-1.79-5.61-2.4Z"/>
          <path class="cls-1" d="M673.74,105.48c-1.86-.6-4.17-.9-6.93-.9-4.52,0-8.4,1.1-11.63,3.3-3.24,2.2-5.68,5.07-7.33,8.62-1.65,3.55-2.48,7.31-2.48,11.28s.83,7.74,2.48,11.28c1.65,3.55,4.1,6.42,7.33,8.62,3.24,2.2,7.11,3.3,11.63,3.3,2.83,0,5.45-.34,7.84-1.01,2.39-.67,4.43-1.47,6.12-2.4l1.92,15.75c-2.23,.92-4.79,1.69-7.69,2.29-2.9,.6-5.63,.91-8.19,.91-7.82,0-14.5-1.81-20.03-5.43-5.53-3.62-9.7-8.39-12.49-14.32-2.8-5.92-4.2-12.22-4.2-18.89s1.4-12.95,4.2-18.84c2.8-5.89,6.96-10.66,12.49-14.32,5.53-3.65,12.21-5.48,20.03-5.48,5.26,0,10.02,.99,14.26,2.98l-1.72,15.65c-1.89-.99-3.76-1.79-5.61-2.4Z"/>
          <path class="cls-1" d="M694.23,166.32V90.21h14.47v76.11h-14.47Z"/>
          <path class="cls-1" d="M739.39,161.85c-5.63-3.69-9.86-8.53-12.7-14.53-2.83-6-4.25-12.4-4.25-19.21s1.42-13.11,4.25-19.11c2.83-6,7.06-10.84,12.7-14.53,5.63-3.69,12.43-5.54,20.38-5.54s14.75,1.85,20.38,5.54c5.63,3.69,9.86,8.53,12.7,14.53,2.83,6,4.25,12.37,4.25,19.11s-1.42,13.22-4.25,19.21c-2.83,6-7.07,10.84-12.7,14.53-5.63,3.69-12.43,5.54-20.38,5.54s-14.75-1.84-20.38-5.54Zm32.22-13.57c3.3-2.24,5.78-5.15,7.44-8.73,1.65-3.58,2.48-7.4,2.48-11.44s-.83-7.88-2.48-11.5c-1.65-3.62-4.13-6.53-7.44-8.73-3.31-2.2-7.25-3.3-11.84-3.3s-8.52,1.1-11.79,3.3c-3.27,2.2-5.73,5.09-7.38,8.68-1.65,3.58-2.48,7.43-2.48,11.55s.83,7.86,2.48,11.44c1.65,3.58,4.11,6.49,7.38,8.73,3.27,2.24,7.2,3.35,11.79,3.35s8.53-1.12,11.84-3.35Z"/>
          <path class="cls-1" d="M825.13,166.32h-14.47V88.61h3.84l36.52,44.71v-43.01h14.57v77.6h-3.84l-36.62-43.01v41.41Z"/>
          <path class="cls-1" d="M881.88,166.32V90.21h36.22v15.22h-21.75v15.22h19.02v15.22h-19.02v15.22h22.96v15.22h-37.43Z"/>
          <path class="cls-1" d="M931.35,145.46c3.1,2.34,6.29,3.96,9.56,4.84,3.27,.89,6.29,1.33,9.05,1.33l2.02-.11c2.09-.14,3.86-.89,5.31-2.24,1.45-1.35,2.17-2.94,2.17-4.79,0-2.2-.64-3.92-1.92-5.16-1.28-1.24-3.14-2.32-5.56-3.25-6.68-2.55-11.92-5.6-15.73-9.15-3.81-3.55-5.72-8.23-5.72-14.05,0-4.19,.86-8.02,2.58-11.5,1.72-3.48,4.13-6.24,7.23-8.3,3.1-2.06,6.64-3.19,10.62-3.41l2.43-.11c4.45,0,9.64,1.1,15.58,3.3l-1.82,14.69c-5.46-2.34-10.39-3.41-14.77-3.19-2.29,.14-4.06,.94-5.31,2.4-1.25,1.46-1.87,3.25-1.87,5.38s.71,3.92,2.12,5.16c1.42,1.24,3.4,2.33,5.97,3.25,6.41,2.48,11.5,5.59,15.28,9.31,3.78,3.73,5.67,8.39,5.67,14,0,4.47-.98,8.46-2.93,11.98-1.96,3.51-4.74,6.26-8.35,8.25-3.61,1.99-7.81,2.98-12.59,2.98-2.83,0-6.07-.43-9.71-1.28s-7.35-2.31-11.13-4.36l1.82-15.97Z"/>
        </g>
        <polygon class="cls-2" points="391.19 87.76 384.74 105.67 394.2 109.45 400.65 91.53 391.19 87.76"/>
      </g>
    </g>
  </g>
</svg>