<?xml version="1.0" encoding="UTF-8"?>
<svg id="Capa_2" data-name="Capa 2" xmlns="http://www.w3.org/2000/svg" viewBox="0 0 988 363">
  <defs>
    <style>
    @font-face {
    font-family:LOVELO ;
    src: url('../fonts/LOVELO.TTF');
    }
      .cls-1 {
        fill: #fff;
        font-size: 106.45px;
      }

      .cls-1, .cls-2 {
        font-family: LOVELO;
      }

      .cls-2 {
        font-size: 313.34px;
      }

      .cls-2, .cls-3 {
        fill: #22ffe5;
      }

      .cls-4 {
        fill: aqua;
        stroke: #121212;
        stroke-miterlimit: 10;
        stroke-width: 2px;
      }
    </style>
  </defs>
  <g id="Capa_1-2" data-name="Capa 1">
    <g>
      <g>
        <path class="cls-3" d="M223.36,44.12h64.01c5.52,0,10,4.48,10,10v37.24c0,5.52-4.48,10-10,10h-54.01c-5.52,0-10-4.48-10-10V44.12h0Z"/>
        <path class="cls-3" d="M148.05,155.42c-2.6,93.81,77.9,92.22,77.9,92.22v19.08s-93.48-1.61-93.48-111.3S225.95,44.12,225.95,44.12v19.08s-75.37,.6-77.9,92.22Z"/>
        <path class="cls-3" d="M233.36,209.48h64.01v47.24c0,5.52-4.48,10-10,10h-54.01c-5.52,0-10-4.48-10-10v-37.24c0-5.52,4.48-10,10-10Z" transform="translate(520.72 476.2) rotate(180)"/>
        <polygon class="cls-3" points="276.59 40.94 242.83 40.94 248.03 29.81 271.4 29.81 276.59 40.94"/>
        <polygon class="cls-3" points="243.39 269.9 277.15 269.9 271.96 281.03 248.59 281.03 243.39 269.9"/>
      </g>
      <text class="cls-2" transform="translate(0 268.69) scale(.97 1)"><tspan x="0" y="0">J</tspan></text>
      <text class="cls-1" transform="translate(226.25 196.13) scale(.95 1)"><tspan x="0" y="0">Producciones</tspan></text>
      <polygon class="cls-4" points="400.9 117.56 394.45 135.48 403.91 139.25 410.36 121.33 400.9 117.56"/>
    </g>
  </g>
</svg>